<svg xmlns="http://www.w3.org/2000/svg" width="360" height="99">
  <g fill="none" fill-rule="evenodd">
    <path fill="#033977" fill-rule="nonzero" d="M49.267 84.857a.405.405 0 0 1-.371-.242c-3.7-8.436-19.228-41.18-20.548-43.798l-.415-.021c-.272 1.309-9.462 42.048-11.025 49.72a.405.405 0 0 1-.398.325H.407a.406.406 0 0 1-.396-.498C3.238 76.326 15.906 19.275 16.5 16.372a.406.406 0 0 1 .398-.325H34.12c.162 0 .308.096.373.245 1.159 2.689 16.139 35.603 22.332 48.612h.356c4.331-9.559 20.943-45.627 22.317-48.622a.403.403 0 0 1 .369-.235h17.606c.194 0 .362.137.399.328.602 3.114 11.9 59.674 14.818 73.977a.407.407 0 0 1-.399.489h-16.55a.407.407 0 0 1-.398-.326L84.857 39.66l-.259.011C83.515 42.092 66.664 77.6 63.753 84.608a.404.404 0 0 1-.374.25H49.267Z"/>
    <g stroke="#033977" stroke-linecap="round" stroke-linejoin="round" stroke-width="1.491" transform="translate(136.162 32.513)">
      <path d="m15.701 37.219-1.663-4.234M15.99 37.956s2.74-7.417 2.706-8.729l-.064-11.106 6.16 3.938c1.188.832 2.117.776 3.043-.48.71-.963.657-2.352-.434-3.117l-5.775-4.222a8.338 8.338 0 0 0-4.786-1.512H11.69c-2.833 0-4.896 1.559-6.244 4.06L.417 25.89c-.56 1.037-.747 2.36.675 3.188 1.422.828 2.59.111 3.228-.992l4.516-7.314s-.289 10 .14 11.151L15.19 50.11c.516 1.385 1.657 1.962 2.893 1.487 1.235-.475 1.923-2.037 1.406-3.353L15.701 37.22"/>
      <path d="m12.17 42.004-4.54 5.78a2.233 2.233 0 0 1-3.224-.268h0a2.25 2.25 0 0 1 .22-3.061l5.76-7.236"/>
      <ellipse cx="13.662" cy="5.595" rx="4.639" ry="4.654" transform="rotate(-13.283 13.662 5.595)"/>
    </g>
    <path fill="#033977" fill-rule="nonzero" d="M265.527 90.7h-11.378c-.376 0-.68-.155-.68-.345v-39.15c0-.191.304-.345.68-.345h11.378c.376 0 .68.154.68.344v39.15c0 .191-.304.345-.68.345Z"/>
    <ellipse cx="259.838" cy="40.389" fill="#009245" fill-rule="nonzero" rx="7.454" ry="7.479"/>
    <ellipse cx="259.838" cy="23.798" fill="#FCC815" fill-rule="nonzero" rx="7.454" ry="7.479"/>
    <ellipse cx="259.838" cy="7.479" fill="#DA1C24" fill-rule="nonzero" rx="7.454" ry="7.479"/>
    <path fill="#009245" fill-rule="nonzero" d="M360 60.423h-30.511c.033 4.253.617 7.97 1.751 11.151 1.134 3.182 2.92 5.826 5.356 7.934a17.019 17.019 0 0 0 6.067 3.579c2.25.758 4.932 1.137 8.047 1.137 1.556 0 2.919-.046 4.086-.139.553-.043 1.02-.08 1.403-.112.425-.035-.069-.062.145-.082l-.05 6.769c-.339.037-1.033.092-2.081.166-1.05.074-2.471.111-4.265.111-4.67 0-8.74-.758-12.21-2.275-3.47-1.516-6.303-3.606-8.503-6.269-1.998-2.441-3.63-5.428-4.9-8.96-1.269-3.532-1.903-7.37-1.903-11.513 0-4.4.457-8.266 1.37-11.595.915-3.329 2.403-6.491 4.468-9.487 1.726-2.515 3.816-4.42 6.27-5.715 2.454-1.294 5.051-1.942 7.793-1.942 2.707 0 5.102.519 7.183 1.554 2.082 1.036 3.9 2.571 5.458 4.605 1.625 2.404 2.86 5.317 3.706 8.738.846 3.421 1.286 7.537 1.32 12.345Zm-7.006-5.77c-.44-5.068-1.608-8.886-3.503-11.457-1.896-2.57-4.4-3.856-7.513-3.856-3.115 0-5.712 1.285-7.793 3.856-2.082 2.57-3.529 6.39-4.341 11.456h23.15Z"/>
    <path fill="#033977" fill-rule="nonzero" d="M244.178 63.731c0 5.283-1.263 9.875-3.79 13.777-2.526 3.903-6.258 6.982-11.195 9.235-3.59 1.615-7.687 2.692-12.294 3.23-4.608.538-9.955.807-16.041.807-2.096 0-3.768-.017-5.017-.05-1.08-.03-2.058-.046-2.934-.05a.403.403 0 0 1-.403-.403c.002-2.182.024-6.085.064-11.71.043-5.987.065-14.818.065-26.493 0-8.545-.015-15.644-.043-21.296-.028-5.457-.056-10.352-.083-14.196a.405.405 0 0 1 .406-.408h15.502c.226 0 .408.184.407.41l-.127 22.268c3.818.068 7.708.472 11.67 1.211 3.962.74 7.478 1.935 10.55 3.583 4.363 2.12 7.665 4.913 9.904 8.377 2.24 3.466 3.36 7.368 3.36 11.708Zm-16.363-.202c0-2.455-.71-4.583-2.132-6.383-1.42-1.8-3.466-3.188-6.136-4.164-1.407-.605-2.965-1.05-4.672-1.337a32.766 32.766 0 0 0-5.405-.429h-1.058a.405.405 0 0 0-.407.405c-.002.775-.009 2.306-.02 4.591-.015 2.793-.022 5.333-.022 7.62 0 2.725.014 5.122.043 7.191.026 1.91.04 3.683.043 5.32 0 .226.186.408.411.407 2.37-.02 4.588-.204 6.651-.554 2.182-.37 4.02-.891 5.512-1.564 2.44-1.077 4.249-2.506 5.426-4.29 1.177-1.783 1.766-4.053 1.766-6.813Z"/>
    <path fill="#009245" fill-rule="nonzero" d="M318.174 90.7h-39.838a.407.407 0 0 1-.406-.409V16.735c0-.225.182-.408.406-.408h14.026c.225 0 .407.182.406.408-.026 5.76-.04 54.3-.04 59.332 0 .226.18.407.405.406 3.202-.004 21.907-.044 25.045-.05.223 0 .402.182.402.407V90.29a.407.407 0 0 1-.406.408Z"/>
    <path fill="#033977" fill-rule="nonzero" d="M149.653 22.574c-19.46 0-35.237 15.83-35.237 35.357s15.776 35.357 35.237 35.357c19.461 0 35.238-15.83 35.238-35.357s-15.777-35.357-35.238-35.357Zm0 65.547c-16.541 0-29.951-13.456-29.951-30.054s13.41-30.053 29.951-30.053c16.542 0 29.952 13.455 29.952 30.053s-13.41 30.054-29.952 30.054Z"/>
    <path d="M253.468 84.313h14.637V99h-14.637z"/>
  </g>
</svg>
