<?xml version="1.0" encoding="utf-8"?>
<!-- Generator: Adobe Illustrator 28.5.0, SVG Export Plug-In . SVG Version: 9.03 Build 54727)  -->
<svg version="1.1" id="Ebene_1" xmlns="http://www.w3.org/2000/svg" xmlns:xlink="http://www.w3.org/1999/xlink" x="0px" y="0px"
	 viewBox="0 0 296.2 124" style="enable-background:new 0 0 296.2 124;" xml:space="preserve">
<style type="text/css">
	.st0{fill:#85B723;}
	.st1{fill:#20201E;}
</style>
<polygon class="st0" points="279.1,40.4 203.8,99.2 247.3,99.2 279.1,74.4 "/>
<polygon class="st0" points="241.5,15.1 220.5,31.4 220.5,45 196.3,64 182,64 182,80.9 182.1,81 210.2,81 294.6,15.1 "/>
<g>
	<polygon class="st0" points="279.3,40.5 204,99.3 247.5,99.3 279.3,74.5 	"/>
	<polygon class="st0" points="241.7,15.1 220.7,31.5 220.7,45.1 196.4,64.1 182.1,64.1 182.1,80.9 182.2,81.1 210.3,81.1 
		294.8,15.1 	"/>
	<g>
		<path class="st1" d="M136.7,52.4c0,12.1,7.2,18.9,18.7,18.9s18.2-6.7,18.2-18.7V41.2h-11.4V53c0,5.1-2.2,7.8-6.8,7.8
			c-4.5,0-6.6-2.6-6.6-7.8V28.1h23.7V17.6h-23.7V6.3h-12.1L136.7,52.4L136.7,52.4z M111.8,17C99.8,17,93,24.3,93,32.9
			c0,18.4,26.6,13.8,26.6,23c0,2.9-1.9,5.3-7.3,5.3c-6.7,0-8.7-4.2-8.6-7.6H92c-0.2,8.9,5.9,17.7,20.5,17.7c12.9,0,19-7.8,19-16
			c0-18.1-26.1-13.2-26.1-22.5c0-3.2,2.1-5.5,6.5-5.5c5,0,7.7,3.2,7.4,7.5H131C131.5,24.1,123.5,17,111.8,17 M65.6,61.4
			c-4.6,0-7-2.6-7-6.1c0-3.7,2.2-6.6,8.8-6.6h7.8v2.2C75.2,56.7,71.8,61.4,65.6,61.4 M59.8,33.9c0.1-3,1.6-6.5,7.3-6.5
			c5.1,0,7.7,2.7,7.7,8v4H64.5c-11.2,0-18.4,6.5-18.4,16.2c0,8.5,5.6,15.7,16.7,15.7c8.8,0,12.3-6,12.7-8.6v8.1h11.3V36.6
			c0-13.2-8.3-19.6-20.1-19.6c-13.2,0-19.1,8.1-19.3,16.9C47.4,33.9,59.8,33.9,59.8,33.9z M21.3,60.7c-5.2,0-8.2-3.6-8.2-9.5V37.5
			c0-5.8,2.9-9.7,8.2-9.7c4.7,0,7.6,3,7.6,8.6V52C28.9,57.5,25.9,60.7,21.3,60.7 M13.1,70.8v-8.6c0.7,3.3,4.6,9.2,12.9,9.2
			c8.7,0,15.1-6.4,15.1-17.7V34.8c0-11.5-6-17.8-15.1-17.8c-7.7,0-12,5.5-12.9,9.4V1H0.9v69.8H13.1z"/>
		<path class="st1" d="M230.8,122.8v-7.7c0,0,1.3-0.7,2.7-0.7c1.8,0,2,0.9,2,3.4v5h1.4v-5c0-3.4-0.6-4.7-3.2-4.7
			c-1.4,0-2.9,0.9-2.9,0.9v-0.7h-1.4v9.5L230.8,122.8L230.8,122.8z M220.6,117.5c0-2.3,0.9-3.2,2.5-3.2c1.7,0,2.4,0.8,2.4,3.2H220.6
			z M223.1,121.8c-1.9,0-2.5-1.1-2.5-3.1h6.3l0.1-1.1c0-3.1-1.3-4.4-3.8-4.4c-2.4,0-4,1.4-4,5c0,3.2,0.9,4.9,3.8,4.9
			c1.5,0,3.7-0.3,3.7-0.3v-1.1C226.6,121.6,224.5,121.8,223.1,121.8 M216.9,113.5c0,0-2-0.4-3.4-0.4c-1.7,0-3.4,0.7-3.4,2.8
			c0,1.9,1,2.3,3.2,2.6c2.1,0.3,2.6,0.6,2.6,1.6c0,1.3-0.8,1.6-2.4,1.6c-1,0-3.1-0.3-3.1-0.3l-0.1,1.2c0,0,2.1,0.4,3.3,0.4
			c2.3,0,3.7-0.7,3.7-3c0-1.8-0.9-2.3-3.3-2.7c-2-0.3-2.5-0.6-2.5-1.5c0-1.1,0.9-1.4,2.1-1.4c1.2,0,3.3,0.3,3.3,0.3L216.9,113.5z
			 M201.7,117.5c0-2.3,0.9-3.2,2.5-3.2c1.7,0,2.4,0.8,2.4,3.2H201.7z M204.2,121.8c-1.9,0-2.5-1.1-2.5-3.1h6.3l0.1-1.1
			c0-3.1-1.3-4.4-3.8-4.4c-2.4,0-4,1.4-4,5c0,3.2,0.9,4.9,3.8,4.9c1.5,0,3.7-0.3,3.7-0.3v-1.1C207.6,121.6,205.6,121.8,204.2,121.8
			 M185.4,113.3l2.3,9.5h2.4l2-7.4l2,7.4h2.4l2.3-9.5h-1.4l-1.9,8.3H195l-2.3-8.1h-1.5l-2.3,8.1h-0.3l-1.9-8.3H185.4z M183.3,113.5
			c0,0-2-0.4-3.4-0.4c-1.7,0-3.4,0.7-3.4,2.8c0,1.9,1,2.3,3.2,2.6c2.1,0.3,2.6,0.6,2.6,1.6c0,1.3-0.8,1.6-2.4,1.6
			c-1,0-3.1-0.3-3.1-0.3l-0.1,1.2c0,0,2.1,0.4,3.3,0.4c2.3,0,3.7-0.7,3.7-3c0-1.8-0.9-2.3-3.3-2.7c-2-0.3-2.5-0.6-2.5-1.5
			c0-1.1,0.9-1.4,2.1-1.4c1.2,0,3.3,0.3,3.3,0.3L183.3,113.5z M169.9,122.8h1.4v-7c0,0,1.7-0.9,3.5-1.3v-1.4
			c-1.8,0.4-3.5,1.5-3.5,1.5v-1.3h-1.4V122.8z M161,122.8V115c0,0,1.3-0.6,2.7-0.6c1.7,0,2,0.9,2,3.4v5h1.4v-5
			c0-3.4-0.6-4.7-3.2-4.7c-1.4,0-2.9,0.7-2.9,0.7v-4.7h-1.4v13.6L161,122.8L161,122.8z M150.9,117.5c0-2.3,0.9-3.2,2.5-3.2
			c1.7,0,2.4,0.8,2.4,3.2H150.9z M153.4,121.8c-1.9,0-2.5-1.1-2.5-3.1h6.3l0.1-1.1c0-3.1-1.3-4.4-3.8-4.4c-2.4,0-4,1.4-4,5
			c0,3.2,0.9,4.9,3.8,4.9c1.5,0,3.7-0.3,3.7-0.3v-1.1C156.9,121.6,154.8,121.8,153.4,121.8 M142.3,122.8v-4.3l1.5-0.1l2.8,4.4h1.6
			l-3.2-5.1l3.1-4.4h-1.6l-2.7,3.8l-1.5,0.1v-8h-1.4v13.6H142.3z M134,122.8h1.4v-7c0,0,1.7-0.9,3.5-1.3v-1.4
			c-1.8,0.4-3.5,1.5-3.5,1.5v-1.3H134V122.8z M125.3,117.5c0-2.3,0.9-3.2,2.5-3.2c1.7,0,2.4,0.8,2.4,3.2H125.3z M127.8,121.8
			c-1.9,0-2.5-1.1-2.5-3.1h6.3l0.1-1.1c0-3.1-1.3-4.4-3.8-4.4c-2.4,0-4,1.4-4,5c0,3.2,0.9,4.9,3.8,4.9c1.5,0,3.7-0.3,3.7-0.3v-1.1
			C131.3,121.6,129.2,121.8,127.8,121.8 M121.3,109.7l-3,11.8h-1.1l-3-11.8h-1.5l3.4,13.1h3.3l3.4-13.1H121.3z M102.5,121.7
			c-1.1,0-2.1-0.5-2.1-3.6c0-2.5,0.6-3.8,2.6-3.8c0.8,0,2,0.2,2.3,0.2v6.4C105.2,121,103.9,121.7,102.5,121.7 M106.6,109.2h-1.4v4.2
			c-0.3-0.1-1.5-0.2-2.3-0.2c-2.9,0-4,1.7-4,5c0,4.1,1.6,4.9,3.4,4.9c1.4,0,2.9-0.8,2.9-0.8v0.6h1.4V109.2z M90.4,122.8v-7.7
			c0,0,1.3-0.7,2.7-0.7c1.8,0,2,0.9,2,3.4v5h1.4v-5c0-3.4-0.6-4.7-3.2-4.7c-1.4,0-2.9,0.9-2.9,0.9v-0.7H89v9.5L90.4,122.8
			L90.4,122.8z M84.7,113.3v7.7c0,0-1.2,0.7-2.6,0.7c-1.8,0-2-0.9-2-3.5v-4.9h-1.4v5c0,3.5,0.6,4.7,3.2,4.7c1.4,0,2.8-0.9,2.8-0.9
			v0.7h1.4v-9.5L84.7,113.3L84.7,113.3z M66.2,118.3H72V117h-5.7v1.3H66.2z M57.4,122.8v-7.7c0,0,1.3-0.7,2.7-0.7c1.8,0,2,0.9,2,3.4
			v5h1.4v-5c0-3.4-0.6-4.7-3.2-4.7c-1.4,0-2.9,0.9-2.9,0.9v-0.7H56v9.5L57.4,122.8L57.4,122.8z M47.3,117.5c0-2.3,0.9-3.2,2.5-3.2
			c1.7,0,2.4,0.8,2.4,3.2H47.3z M49.8,121.8c-1.9,0-2.5-1.1-2.5-3.1h6.3l0.1-1.1c0-3.1-1.3-4.4-3.8-4.4c-2.4,0-4,1.4-4,5
			c0,3.2,0.9,4.9,3.8,4.9c1.5,0,3.7-0.3,3.7-0.3v-1.1C53.2,121.6,51.2,121.8,49.8,121.8 M36.4,122.8v-10.2c0-1.9,0.6-2.4,2.3-2.4
			s2.2,0.4,2.2,1.5c0,0.8-0.2,1.2-1.2,1.6c-0.9,0.4-1.5,0.9-1.5,1.8c0,1,0.5,1.5,2.1,2.2c1.7,0.8,2.1,1.2,2.1,2.2
			c0,1.3-0.6,2.1-2.4,2.1c-0.7,0-2.3-0.2-2.3-0.2l-0.1,1.2c0,0,1.5,0.3,2.5,0.3c2.8,0,3.8-1,3.8-3.5c0-1.6-0.7-2.1-2.5-3
			c-1.4-0.7-1.7-0.9-1.7-1.3s0.2-0.5,1.1-0.9c1.1-0.5,1.6-1.1,1.6-2.4c0-1.9-1.1-2.7-3.7-2.7c-2.6,0-3.7,0.9-3.7,3.5v10.3
			L36.4,122.8L36.4,122.8z M30.4,118.1v3.1c0,0-1.6,0.6-3,0.6c-1,0-1.4-0.6-1.4-1.7c0-1,0.5-1.6,1.6-1.7L30.4,118.1z M31.9,116.2
			c0-2.1-0.9-3-3.1-3c-1.6,0-3.7,0.4-3.7,0.4l0.1,1.1c0,0,2.3-0.2,3.6-0.2c1.1,0,1.7,0.5,1.7,1.8v0.8l-3,0.3c-2,0.2-2.9,1-2.9,2.8
			c0,1.9,0.9,2.9,2.7,2.9c1.7,0,3.4-0.8,3.4-0.8c0.6,0.6,1.2,0.8,2.3,0.8l0.1-1.1c-0.6-0.1-1.1-0.3-1.1-0.8L31.9,116.2L31.9,116.2z
			 M18.2,122.8h1.4v-7c0,0,1.7-0.9,3.5-1.3v-1.4c-1.8,0.4-3.5,1.5-3.5,1.5v-1.3h-1.4V122.8z M16.1,114.6v-1.2h-3v-2.9h-1.4v2.9h-1.3
			v1.2h1.3v5c0,2.7,0.7,3.5,2.6,3.5c0.7,0,1.9-0.2,1.9-0.2l-0.1-1.2c0,0-1.2,0.1-1.7,0.1c-1.2,0-1.4-0.6-1.4-2.7v-4.5
			C13,114.6,16.1,114.6,16.1,114.6z M8.8,109.9c0,0-2.4-0.4-4-0.4c-2.6,0-4.2,1-4.2,3.5s1.4,3.1,4.1,3.7c2.1,0.4,2.9,0.8,2.9,2.3
			c0,1.8-0.9,2.6-2.8,2.6c-1.3,0-3.9-0.3-3.9-0.3l-0.2,1.2c0,0,2.6,0.4,4.2,0.4c2.6,0,4.2-1.1,4.2-4c0-2.3-1.2-2.9-3.8-3.5
			c-2.3-0.5-3.2-0.8-3.2-2.5c0-1.5,1-2.1,2.8-2.1c1.1,0,3.7,0.3,3.7,0.3L8.8,109.9z"/>
		<path class="st1" d="M141.2,99.2h1.4v-7c0,0,1.7-0.9,3.5-1.3v-1.4c-1.8,0.4-3.5,1.5-3.5,1.5v-1.3h-1.4V99.2z M136,87.5h1.4v-1.7
			H136V87.5z M132.2,87.5h1.4v-1.7h-1.4V87.5z M138.4,89.8v9.5H137v-0.7c0,0-1.4,0.9-2.8,0.9c-2.7,0-3.2-1.2-3.2-4.7v-5h1.4v4.9
			c0,2.6,0.2,3.5,2,3.5c1.4,0,2.6-0.7,2.6-0.7v-7.7L138.4,89.8L138.4,89.8z M126.2,91h2.8v-1.2h-2.8V89c0-1.8,0.3-2.2,1.4-2.2
			c0.6,0,1.6,0,1.6,0v-1.2c0,0-1.3-0.1-1.9-0.1c-1.9,0-2.6,0.7-2.6,3.5v0.9h-1.2V91h1.2v8.3h1.4L126.2,91L126.2,91z M118.5,91v-1.2
			h-3v-2.9h-1.4v2.9h-1.3V91h1.3v5c0,2.7,0.7,3.5,2.6,3.5c0.7,0,1.9-0.2,1.9-0.2l-0.1-1.2c0,0-1.2,0.1-1.7,0.1
			c-1.2,0-1.4-0.6-1.4-2.7V91H118.5z M109.2,99.2h1.4V85.6h-1.4V99.2z M104.5,94.5v3.1c0,0-1.6,0.6-3,0.6c-1,0-1.4-0.6-1.4-1.7
			c0-1,0.5-1.6,1.6-1.7L104.5,94.5z M106,92.6c0-2.1-0.9-3-3.1-3c-1.6,0-3.7,0.4-3.7,0.4l0.1,1.1c0,0,2.3-0.2,3.6-0.2
			c1.1,0,1.7,0.5,1.7,1.8v0.8l-3,0.3c-2,0.2-2.9,1-2.9,2.8c0,1.9,0.9,2.9,2.7,2.9c1.7,0,3.4-0.8,3.4-0.8c0.6,0.6,1.2,0.8,2.3,0.8
			l0.1-1.1c-0.6-0.1-1.1-0.3-1.1-0.8L106,92.6L106,92.6z M97,91v-1.2h-3v-2.9h-1.4v2.9h-1.3V91h1.3v5c0,2.7,0.7,3.5,2.6,3.5
			c0.7,0,1.9-0.2,1.9-0.2L97,98.1c0,0-1.2,0.1-1.7,0.1c-1.2,0-1.4-0.6-1.4-2.7V91H97z M89.2,89.9c0,0-2-0.4-3.4-0.4
			c-1.7,0-3.4,0.7-3.4,2.8c0,1.9,1,2.3,3.2,2.6c2.1,0.3,2.6,0.6,2.6,1.6c0,1.3-0.8,1.6-2.4,1.6c-1,0-3.1-0.3-3.1-0.3L82.6,99
			c0,0,2.1,0.4,3.3,0.4c2.3,0,3.7-0.7,3.7-3c0-1.8-0.9-2.3-3.3-2.7c-2-0.3-2.5-0.6-2.5-1.5c0-1.1,0.9-1.4,2.1-1.4s3.3,0.3,3.3,0.3
			L89.2,89.9z M74,99.2v-7.7c0,0,1.3-0.7,2.7-0.7c1.8,0,2,0.9,2,3.4v5h1.4v-5c0-3.4-0.6-4.7-3.2-4.7c-1.4,0-2.9,0.9-2.9,0.9v-0.7
			h-1.4v9.5L74,99.2L74,99.2z M68,94.5v3.1c0,0-1.6,0.6-3,0.6c-1,0-1.4-0.6-1.4-1.7c0-1,0.5-1.6,1.6-1.7L68,94.5z M69.5,92.6
			c0-2.1-0.9-3-3.1-3c-1.6,0-3.7,0.4-3.7,0.4l0.1,1.1c0,0,2.3-0.2,3.6-0.2c1.1,0,1.7,0.5,1.7,1.8v0.8l-3,0.3c-2,0.2-2.9,1-2.9,2.8
			c0,1.9,0.9,2.9,2.7,2.9c1.7,0,3.4-0.8,3.4-0.8c0.6,0.6,1.2,0.8,2.3,0.8l0.1-1.1c-0.6-0.1-1.1-0.3-1.1-0.8L69.5,92.6L69.5,92.6z
			 M59.9,89.9c0,0-2-0.4-3.4-0.4c-1.7,0-3.4,0.7-3.4,2.8c0,1.9,1,2.3,3.2,2.6c2.1,0.3,2.6,0.6,2.6,1.6c0,1.3-0.8,1.6-2.4,1.6
			c-1,0-3.1-0.3-3.1-0.3L53.3,99c0,0,2.1,0.4,3.3,0.4c2.3,0,3.7-0.7,3.7-3c0-1.8-0.9-2.3-3.3-2.7c-2-0.3-2.5-0.6-2.5-1.5
			c0-1.1,0.9-1.4,2.1-1.4c1.2,0,3.3,0.3,3.3,0.3L59.9,89.9z M44.7,94c0-2.3,0.9-3.2,2.5-3.2c1.7,0,2.4,0.8,2.4,3.2H44.7z M47.2,98.2
			c-1.9,0-2.5-1.1-2.5-3.1H51V94c0-3.1-1.3-4.4-3.8-4.4c-2.4,0-4,1.4-4,5c0,3.2,0.9,4.9,3.8,4.9c1.5,0,3.7-0.3,3.7-0.3v-1.1
			C50.7,98,48.6,98.2,47.2,98.2 M36.7,98.2c-1.1,0-2.1-0.5-2.1-3.6c0-2.5,0.6-3.8,2.6-3.8c0.8,0,2,0.2,2.3,0.2v6.4
			C39.4,97.5,38,98.2,36.7,98.2 M40.8,85.6h-1.4v4.2c-0.3-0.1-1.5-0.2-2.3-0.2c-2.9,0-4,1.7-4,5c0,4.1,1.6,4.9,3.4,4.9
			c1.4,0,2.9-0.8,2.9-0.8v0.6h1.4C40.8,99.3,40.8,85.6,40.8,85.6z M24.5,99.2v-7.7c0,0,1.3-0.7,2.7-0.7c1.8,0,2,0.9,2,3.4v5h1.4v-5
			c0-3.4-0.6-4.7-3.2-4.7c-1.4,0-2.9,0.9-2.9,0.9v-0.7h-1.4v9.5L24.5,99.2L24.5,99.2z M18.9,89.8v7.7c0,0-1.2,0.7-2.6,0.7
			c-1.8,0-2-0.9-2-3.5v-4.9h-1.4v5c0,3.5,0.6,4.7,3.2,4.7c1.4,0,2.8-0.9,2.8-0.9v0.7h1.4v-9.5L18.9,89.8L18.9,89.8z M6,87.4
			c1.7,0,2.5,0.6,2.5,2.2S7.8,92,6.2,92H2.8v-4.5L6,87.4L6,87.4z M6.2,93.2c1,0,2.7,0.3,2.7,2.3c0,1.9-1,2.4-2.6,2.4H2.8v-4.7
			C2.8,93.2,6.2,93.2,6.2,93.2z M1.3,86.1v13.1h5c2.5,0,4.1-0.9,4.1-3.7c0-1.9-0.9-2.7-2.1-3.1c1.1-0.5,1.7-1.3,1.7-3
			c0-2.3-1.3-3.3-3.9-3.3H1.3z"/>
	</g>
</g>
</svg>
