<?xml version="1.0" encoding="UTF-8" standalone="no"?>
<!DOCTYPE svg PUBLIC "-//W3C//DTD SVG 1.1//EN" "http://www.w3.org/Graphics/SVG/1.1/DTD/svg11.dtd">
<svg width="100%" height="100%" viewBox="0 0 603 400" version="1.1" xmlns="http://www.w3.org/2000/svg" xmlns:xlink="http://www.w3.org/1999/xlink" xml:space="preserve" xmlns:serif="http://www.serif.com/" style="fill-rule:evenodd;clip-rule:evenodd;stroke-linejoin:round;stroke-miterlimit:2;">
    <g>
        <path d="M372.504,334.119L43.92,334.119L43.92,356.079L387.04,356.079C381.303,349.448 376.407,342.071 372.504,334.119Z" style="fill-rule:nonzero;"/>
        <path d="M50.323,188.811L43.92,98.822L69.462,98.822L69.333,135.819C69.255,143.1 68.718,150.261 68.521,157.542L68.759,157.542C70.986,150.261 72.477,143.1 74.943,135.819L87.483,98.822L113.86,98.822L75.148,188.811L50.323,188.811Z" style="fill-rule:nonzero;"/>
        <path d="M119.357,98.822L164.592,98.822L161.229,120.065L140.343,120.065L138.359,132.596L157.096,132.596L153.734,153.841L134.995,153.841L132.823,167.568L153.709,167.568L150.347,188.811L105.112,188.811L119.357,98.822Z" style="fill-rule:nonzero;"/>
        <path d="M193.24,140.474C199.685,140.474 204.034,134.864 204.96,129.016C206.207,121.14 201.962,117.797 195.222,118.156L191.707,140.355L193.24,140.474ZM197.404,188.811L189.85,151.336L189.574,151.574C188.994,155.989 188.534,160.405 187.835,164.822L184.037,188.811L159.69,188.811L173.935,98.822L197.447,98.822C218.572,98.822 232.867,105.027 229.107,128.778C227.539,138.684 221.844,147.516 211.572,151.336L223.781,188.811L197.404,188.811Z" style="fill-rule:nonzero;"/>
        <path d="M266.422,188.811L257.801,147.516L257.92,147.516L257.682,147.516L251.145,188.811L226.797,188.811L241.042,98.822L265.39,98.822L259.325,137.132L259.206,137.132L259.325,137.132L259.049,137.371L259.087,137.132L259.445,137.132L278.877,98.822L304.538,98.822L278.206,142.265L292.56,188.811L266.422,188.811Z" style="fill-rule:nonzero;"/>
        <path d="M310.073,98.822L355.308,98.822L351.945,120.065L331.059,120.065L329.075,132.596L347.812,132.596L344.45,153.841L325.711,153.841L323.539,167.568L344.425,167.568L341.063,188.811L295.828,188.811L310.073,98.822Z" style="fill-rule:nonzero;"/>
        <path d="M387.988,188.811L393.769,152.291L382.192,152.291L376.411,188.811L352.063,188.811L366.308,98.822L390.656,98.822L385.555,131.046L397.132,131.046L402.233,98.822L426.58,98.822L412.335,188.811L387.988,188.811Z" style="fill-rule:nonzero;"/>
        <path d="M457.006,140.474C463.45,140.474 467.799,134.864 468.725,129.016C469.972,121.14 465.728,117.797 458.988,118.156L455.473,140.355L457.006,140.474ZM461.169,188.811L453.615,151.336L453.338,151.574C452.759,155.989 452.299,160.405 451.6,164.822L447.803,188.811L423.455,188.811L437.701,98.822L461.212,98.822C482.337,98.822 496.631,105.027 492.872,128.778C491.304,138.684 485.61,147.516 475.338,151.336L487.546,188.811L461.169,188.811Z" style="fill-rule:nonzero;"/>
        <path d="M496.409,158.497C498.957,163.51 504.012,168.521 510.218,168.521C513.56,168.521 517.701,166.493 518.323,162.555C518.664,160.405 518.193,158.854 517.206,157.542C516.341,156.229 515.078,155.154 513.698,154.081C509.509,150.381 505.88,146.918 503.457,142.622C501.134,138.445 500.019,133.433 501.058,126.868C502.72,116.365 512.426,97.27 533.193,97.27C539.042,97.27 545.084,99.06 549.781,101.805L545.455,129.136C543.308,124.6 538.273,119.469 532.664,119.469C529.799,119.469 526.016,121.497 525.469,124.958C525.166,126.868 525.976,128.538 527.062,129.971C528.148,131.404 529.749,132.596 530.893,133.671C535.458,137.252 538.986,140.594 541.089,144.652C543.312,148.71 544.108,153.484 543.03,160.287C540.385,176.996 526.573,190.363 509.626,190.363C503.42,190.363 497.301,189.05 491.95,186.663L496.409,158.497Z" style="fill-rule:nonzero;"/>
        <path d="M89.709,300.802L88.925,264.282C88.765,257.001 89.409,250.676 89.555,244.47L89.316,244.47C87.737,250.676 86.497,257.001 84.271,264.282L73.358,300.802L49.726,300.802L43.92,210.813L67.91,210.813L67.537,247.095C67.434,253.779 67.111,260.343 66.888,267.026L67.127,267.026C68.901,260.343 70.06,253.779 72.312,247.095L84.38,210.813L105.267,210.813L105.73,247.095C105.765,253.659 105.461,260.104 105.376,266.668L105.615,266.668C107.219,261.059 108.554,254.136 110.743,247.095L121.857,210.813L145.608,210.813L113.221,300.802L89.709,300.802Z" style="fill-rule:nonzero;"/>
        <path d="M168.73,270.13L169.41,249.243C169.583,243.633 170.012,237.904 170.303,232.296L170.064,232.296C168.46,237.904 166.957,243.633 165.114,249.243L158.466,270.13L168.73,270.13ZM168.529,300.802L168.572,289.226L152.221,289.226L148.359,300.802L123.296,300.802L159.143,210.813L188.861,210.813L193.712,300.802L168.529,300.802Z" style="fill-rule:nonzero;"/>
        <path d="M254.795,237.189C251.862,233.846 249.3,231.938 244.288,231.938C231.637,231.938 226.322,245.901 224.755,255.807C223.092,266.31 224.079,279.677 236.253,279.677C241.743,279.677 245.545,277.529 250.05,273.949L244.631,299.132C239.398,301.28 234.812,302.354 229.441,302.354C209.509,302.354 194.961,287.197 199.836,256.404C206.221,216.064 234.987,209.261 246.803,209.261C251.1,209.261 255.182,209.858 258.875,211.409L254.795,237.189Z" style="fill-rule:nonzero;"/>
        <path d="M289.419,300.802L295.201,264.282L283.624,264.282L277.843,300.802L253.495,300.802L267.74,210.813L292.088,210.813L286.987,243.037L298.564,243.037L303.664,210.813L328.012,210.813L313.767,300.802L289.419,300.802Z" style="fill-rule:nonzero;"/>
        <path d="M336.752,300.802L347.521,232.773L334.154,232.773L337.63,210.813L389.309,210.813L385.833,232.773L371.869,232.773L361.1,300.802L336.752,300.802Z" style="fill-rule:nonzero;"/>
        <path d="M333.142,65.881L43.92,65.881L43.92,43.921L336.618,43.921L333.142,65.881Z" style="fill-rule:nonzero;"/>
        <path d="M348.939,73.109C352.911,73.109 356.325,72.548 359.749,69.741C362.822,67.237 364.744,63.826 365.318,60.199C365.906,56.486 365.049,52.902 362.632,50.441C360.07,47.806 356.87,47.288 353.028,47.288L350.393,47.288L346.305,73.109L348.939,73.109ZM347.3,43.921L353.43,43.921C358.31,43.921 362.18,44.568 365.503,47.85C368.711,51.045 369.704,55.406 368.939,60.242C368.186,64.992 365.796,69.18 361.706,72.375C357.274,75.829 353.285,76.477 348.19,76.477L342.145,76.477L347.3,43.921Z" style="fill-rule:nonzero;"/>
        <path d="M377.435,43.921L394.319,43.921L393.785,47.288L380.53,47.288L378.998,56.96L391.865,56.96L391.332,60.328L378.465,60.328L376.441,73.109L389.697,73.109L389.164,76.477L372.281,76.477L377.435,43.921Z" style="fill-rule:nonzero;"/>
        <path d="M401.825,63.308C401.442,65.726 400.919,68.489 402.101,70.562C403.212,72.548 405.798,73.67 408.172,73.67C410.504,73.67 413.222,72.591 415.021,70.777C417.076,68.705 417.397,65.855 417.801,63.308L420.87,43.921L424.498,43.921L421.271,64.301C420.71,67.842 420.007,70.648 416.993,73.325C414.364,75.743 410.921,77.038 407.639,77.038C404.574,77.038 401.606,75.873 399.745,73.714C397.327,70.993 397.453,68.014 398.041,64.301L401.267,43.921L404.895,43.921L401.825,63.308Z" style="fill-rule:nonzero;"/>
        <path d="M435.273,76.477L431.647,76.477L436.268,47.288L428.409,47.288L428.942,43.921L448.373,43.921L447.84,47.288L439.895,47.288L435.273,76.477Z" style="fill-rule:nonzero;"/>
        <path d="M466.71,50.268C465.77,48.022 464.42,46.727 461.657,46.727C458.764,46.727 455.931,48.8 455.459,51.779C455.016,54.586 457.703,55.881 459.748,56.874L461.757,57.824C465.694,59.681 468.943,61.796 468.122,66.978C467.22,72.677 461.953,77.038 456.296,77.038C451.071,77.038 447.719,73.67 447.483,68.618L451.181,67.626C451.129,70.95 453.246,73.67 456.743,73.67C460.24,73.67 463.86,70.993 464.441,67.323C465.042,63.524 462.268,62.228 459.464,60.847L457.615,59.983C454.089,58.256 451.115,56.313 451.854,51.65C452.653,46.598 457.441,43.359 462.276,43.359C465.904,43.359 468.675,45.216 469.897,48.411L466.71,50.268Z" style="fill-rule:nonzero;"/>
        <path d="M501.645,51.045C499.478,48.368 496.154,46.727 492.398,46.727C485.144,46.727 478.273,53.031 477.138,60.199C476.004,67.366 480.921,73.67 488.218,73.67C491.889,73.67 495.745,71.944 498.746,69.352L498.036,73.843C494.908,75.873 491.268,77.038 487.814,77.038C478.617,77.038 472.028,69.569 473.491,60.328C474.968,51.002 483.82,43.359 493.147,43.359C496.774,43.359 499.805,44.395 502.356,46.554L501.645,51.045Z" style="fill-rule:nonzero;"/>
        <path d="M528.14,57.133L530.232,43.921L533.858,43.921L528.703,76.477L525.077,76.477L527.607,60.501L510.94,60.501L508.41,76.477L504.782,76.477L509.937,43.921L513.565,43.921L511.473,57.133L528.14,57.133Z" style="fill-rule:nonzero;"/>
        <path d="M541.454,43.921L558.338,43.921L557.804,47.288L544.549,47.288L543.017,56.96L555.885,56.96L555.352,60.328L542.484,60.328L540.46,73.109L553.716,73.109L553.183,76.477L536.301,76.477L541.454,43.921Z" style="fill-rule:nonzero;"/>
        <path d="M476.82,246.211L452.603,246.211L452.603,276.782L422.033,276.782L422.033,300.999L452.603,300.999L452.603,331.57L476.82,331.57L476.82,300.999L507.39,300.999L507.39,276.782L476.82,276.782L476.82,246.211Z" style="fill:rgb(0,150,24);fill-rule:nonzero;"/>
        <path d="M464.711,343.028C434.86,343.028 410.574,318.742 410.574,288.891C410.574,259.039 434.86,234.753 464.711,234.753C494.563,234.753 518.849,259.039 518.849,288.891C518.849,318.742 494.563,343.028 464.711,343.028ZM464.711,210.536C421.507,210.536 386.357,245.686 386.357,288.891C386.357,332.095 421.507,367.245 464.711,367.245C507.916,367.245 543.066,332.095 543.066,288.891C543.066,245.686 507.916,210.536 464.711,210.536Z" style="fill:rgb(0,150,24);fill-rule:nonzero;"/>
    </g>
</svg>
