<svg xmlns="http://www.w3.org/2000/svg" xml:space="preserve" viewBox="0 0 130 30.1"><path d="M70.7 12h3L66.3 0 59 12h3l1-1.7h6.7l1 1.7zm-6.6-3.9 2-3.6 2.1 3.6h-4.1zM81.6 10c-2.1 0-3.4-.9-3.4-1.4h-2.6c0 2 2.6 3.6 6 3.6s6-1.6 6-3.6c0-4.4-9.3-3-9.3-4.7 0-.6 1.1-1.4 3.3-1.4s3.4.8 3.4 1.4h2.6c0-2.1-2.6-3.6-6-3.6s-6 1.6-6 3.6c0 4.3 9.4 2.7 9.4 4.7-.1.5-1.4 1.4-3.4 1.4zM11.9 6.3C11.9 3 9.3.4 6 .4H0v11.7h5.9c3.2 0 6-2.5 6-5.8zM2.6 3h3.3c1.9 0 3.3 1.4 3.3 3.3S7.7 9.6 5.9 9.6H2.6V3zM18.7.4h-2.6v11.7h2.6V.4zM43 .3h-2.6V12H43V.3zM51.3 12h2.6V3h4.7V.3H46.7v2.6h4.6V12zM23.1 6c-.1 3.3 2.6 6 5.9 6h5.9V5.6h-2.6v3.9h-3.1c-1.7 0-3.3-1.3-3.4-3-.1-1.9 1.3-3.3 3-3.4h6V.3H29c-3 0-5.9 2.6-5.9 5.7zm38.5 21.1h-1.4V18h-2.6v11.7h11v-2.6h-7zm51.4-4.5c.1-2.6-2-4.7-4.6-4.7h-7.1v11.7h2.6V27h4.4l2.7 2.6h3.3l-3.4-3.4c1.2-.8 2.1-2.1 2.1-3.6zm-9.1-2.3h4.6c.6 0 1.1.3 1.6.7.4.4.6 1 .6 1.6 0 1.1-1.1 2.1-2.3 2.1H104c-.1 0-.1-4.4-.1-4.4zm-19.6 9.3h3l1-1.7H95l1 1.7h3l-7.6-12-7.1 12zm9.4-3.9h-4.1l2-3.6 2.1 3.6zM19 17.9h-2.6v11.7H19V17.9zm60.1 0H72v11.7h2.6V27H79c2.4 0 4.6-1.9 4.7-4.4 0-2.6-2-4.7-4.6-4.7zm-.1 6.7h-4.4v-4.4h4.6c.6 0 1.1.3 1.6.7.4.4.6 1 .6 1.6-.1 1.2-1.3 2.1-2.4 2.1zM7.1 17.9H0v11.7h2.6V27h4.6c2.4 0 4.6-1.9 4.7-4.4 0-2.6-2.2-4.7-4.8-4.7zm0 6.7H2.6v-4.4h4.6c.6 0 1.1.3 1.6.7.4.4.6 1 .6 1.6 0 1.2-1.1 2.1-2.3 2.1zm27.2-7L29.9 22l-4.4-4.4-1.9 1.9 4.4 4.4-4.4 4.4 1.9 1.9 4.4-4.4 4.4 4.3 1.9-1.9-4.4-4.4 4.4-4.4c-.1-.1-1.9-1.8-1.9-1.8zm95.7.3h-3.6l-5.7 5v-5h-2.6v11.7h2.6v-5l5.7 5h3.6l-6.6-5.9 6.6-5.8zm-89.3 0v11.7h11.9v-2.1h-9.1V25h7.9v-2.3h-7.9v-2.6h9.1v-2.3c0 .1-11.9.1-11.9.1z"/></svg>
