<?xml version="1.0" encoding="utf-8"?>
<!-- Generator: Adobe Illustrator 21.0.1, SVG Export Plug-In . SVG Version: 6.00 Build 0)  -->
<svg version="1.1" id="Ebene_1" xmlns="http://www.w3.org/2000/svg" xmlns:xlink="http://www.w3.org/1999/xlink" x="0px" y="0px"
	 viewBox="0 0 216.9 95.4" style="enable-background:new 0 0 216.9 95.4;" xml:space="preserve">
<style type="text/css">
	.st0{clip-path:url(#SVGID_2_);}
	.st1{clip-path:url(#SVGID_4_);}
	.st2{clip-path:url(#SVGID_6_);}
	.st3{clip-path:url(#SVGID_8_);}
	.st4{clip-path:url(#SVGID_10_);}
	.st5{clip-path:url(#SVGID_12_);}
	.st6{clip-path:url(#SVGID_14_);}
	.st7{clip-path:url(#SVGID_16_);}
	.st8{clip-path:url(#SVGID_18_);}
	.st9{clip-path:url(#SVGID_20_);}
	.st10{clip-path:url(#SVGID_22_);}
	.st11{clip-path:url(#SVGID_24_);}
	.st12{clip-path:url(#SVGID_26_);}
	.st13{clip-path:url(#SVGID_28_);}
	.st14{clip-path:url(#SVGID_30_);}
	.st15{clip-path:url(#SVGID_32_);}
	.st16{clip-path:url(#SVGID_34_);}
	.st17{clip-path:url(#SVGID_36_);}
	.st18{clip-path:url(#SVGID_38_);}
	.st19{clip-path:url(#SVGID_40_);}
	.st20{clip-path:url(#SVGID_42_);}
	.st21{clip-path:url(#SVGID_44_);}
	.st22{clip-path:url(#SVGID_46_);}
	.st23{clip-path:url(#SVGID_48_);}
	.st24{clip-path:url(#SVGID_50_);}
	.st25{clip-path:url(#SVGID_52_);}
	.st26{clip-path:url(#SVGID_54_);}
	.st27{clip-path:url(#SVGID_56_);}
	.st28{clip-path:url(#SVGID_58_);}
	.st29{clip-path:url(#SVGID_60_);}
	.st30{clip-path:url(#SVGID_62_);}
	.st31{clip-path:url(#SVGID_64_);}
	.st32{clip-path:url(#SVGID_66_);fill:#85B723;}
	.st33{fill:#85B723;}
</style>
<g>
	<g>
		<defs>
			<rect id="SVGID_1_" y="0" width="216.9" height="95.4"/>
		</defs>
		<clipPath id="SVGID_2_">
			<use xlink:href="#SVGID_1_"  style="overflow:visible;"/>
		</clipPath>
		<path class="st0" d="M0.7,54.4V0h9.5v19.8c0.7-3,4.1-7.3,10.1-7.3c7.1,0,11.8,4.9,11.8,13.9v14.7c0,8.8-5,13.8-11.8,13.8
			c-6.5,0-9.5-4.6-10.1-7.2v6.7C10.2,54.4,0.7,54.4,0.7,54.4z M22.6,39.7V27.6c0-4.4-2.3-6.7-5.9-6.7c-4.1,0-6.4,3-6.4,7.6v10.7
			c0,4.6,2.3,7.4,6.4,7.4C20.2,46.5,22.6,44,22.6,39.7"/>
	</g>
	<g>
		<defs>
			<rect id="SVGID_3_" y="0" width="216.9" height="95.4"/>
		</defs>
		<clipPath id="SVGID_4_">
			<use xlink:href="#SVGID_3_"  style="overflow:visible;"/>
		</clipPath>
		<path class="st1" d="M37.1,25.6c0.2-6.9,4.8-13.2,15-13.2c9.2,0,15.7,5,15.7,15.3v26.7H59v-6.3c-0.3,2-3,6.7-9.9,6.7
			c-8.7,0-13-5.6-13-12.2C36.1,35,41.7,30,50.4,30h8v-3.1c0-4.1-2-6.2-6-6.2c-4.4,0-5.6,2.7-5.7,5.1h-9.6V25.6z M58.7,38.9v-1.7
			h-6.1c-5.1,0-6.9,2.3-6.9,5.1c0,2.7,1.9,4.8,5.5,4.8C56.1,47.1,58.7,43.4,58.7,38.9"/>
	</g>
	<g>
		<defs>
			<rect id="SVGID_5_" y="0" width="216.9" height="95.4"/>
		</defs>
		<clipPath id="SVGID_6_">
			<use xlink:href="#SVGID_5_"  style="overflow:visible;"/>
		</clipPath>
		<path class="st2" d="M102.3,26.3h-9.1c0.2-3.4-1.9-5.8-5.8-5.8c-3.4,0-5.1,1.8-5.1,4.3c0,7.2,20.3,3.4,20.3,17.5
			c0,6.4-4.8,12.5-14.8,12.5c-11.4,0-16.1-6.9-16-13.8H81c-0.1,2.7,1.5,5.9,6.7,5.9c4.2,0,5.7-1.9,5.7-4.1c0-7.2-20.7-3.6-20.7-17.9
			c0-6.7,5.3-12.4,14.7-12.4C96.5,12.5,102.7,18,102.3,26.3"/>
	</g>
	<g>
		<defs>
			<rect id="SVGID_7_" y="0" width="216.9" height="95.4"/>
		</defs>
		<clipPath id="SVGID_8_">
			<use xlink:href="#SVGID_7_"  style="overflow:visible;"/>
		</clipPath>
		<path class="st3" d="M106.8,4.1h9.4v8.8h18.5v8.2h-18.5v19.4c0,4.1,1.6,6.1,5.1,6.1c3.6,0,5.3-2.1,5.3-6.1v-9.2h8.9v8.9
			c0,9.4-5.2,14.6-14.2,14.6s-14.6-5.3-14.6-14.7L106.8,4.1L106.8,4.1z"/>
	</g>
	<g>
		<defs>
			<rect id="SVGID_9_" y="0" width="216.9" height="95.4"/>
		</defs>
		<clipPath id="SVGID_10_">
			<use xlink:href="#SVGID_9_"  style="overflow:visible;"/>
		</clipPath>
		<path class="st4" d="M4.4,68.1c2,0,3.1,0.8,3.1,2.7c0,1.4-0.5,2-1.3,2.4c0.9,0.3,1.7,1,1.7,2.5c0,2.2-1.3,2.9-3.2,2.9h-4V68.1H4.4
			z M1.7,69.1v3.6h2.7c1.3,0,1.9-0.6,1.9-1.9c0-1.2-0.6-1.7-2-1.7H1.7z M1.7,73.8v3.8h2.8c1.3,0,2.1-0.4,2.1-2s-1.4-1.8-2.2-1.8H1.7
			z"/>
	</g>
	<g>
		<defs>
			<rect id="SVGID_11_" y="0" width="216.9" height="95.4"/>
		</defs>
		<clipPath id="SVGID_12_">
			<use xlink:href="#SVGID_11_"  style="overflow:visible;"/>
		</clipPath>
		<path class="st5" d="M15.6,71v7.6h-1.1v-0.5c0,0-1.1,0.7-2.2,0.7c-2.1,0-2.6-1-2.6-3.8v-4h1.1v4c0,2.1,0.2,2.8,1.6,2.8
			c1.1,0,2.1-0.6,2.1-0.6V71H15.6z"/>
	</g>
	<g>
		<defs>
			<rect id="SVGID_13_" y="0" width="216.9" height="95.4"/>
		</defs>
		<clipPath id="SVGID_14_">
			<use xlink:href="#SVGID_13_"  style="overflow:visible;"/>
		</clipPath>
		<path class="st6" d="M17.8,78.6V71h1.1v0.5c0,0,1.2-0.7,2.4-0.7c2.1,0,2.6,1,2.6,3.7v4h-1.1v-4c0-2-0.2-2.7-1.6-2.7
			c-1.1,0-2.1,0.6-2.1,0.6v6.2H17.8z"/>
	</g>
	<g>
		<defs>
			<rect id="SVGID_15_" y="0" width="216.9" height="95.4"/>
		</defs>
		<clipPath id="SVGID_16_">
			<use xlink:href="#SVGID_15_"  style="overflow:visible;"/>
		</clipPath>
		<path class="st7" d="M31.7,78.6h-1.1v-0.5c0,0-1.2,0.7-2.3,0.7c-1.5,0-2.7-0.6-2.7-3.9c0-2.7,0.9-4,3.2-4c0.7,0,1.6,0.2,1.9,0.2
			v-3.4h1.1v10.9H31.7z M30.6,77.2V72c-0.2,0-1.2-0.2-1.8-0.2c-1.6,0-2.1,1-2.1,3c0,2.5,0.8,2.9,1.7,2.9
			C29.5,77.7,30.6,77.2,30.6,77.2"/>
	</g>
	<g>
		<defs>
			<rect id="SVGID_17_" y="0" width="216.9" height="95.4"/>
		</defs>
		<clipPath id="SVGID_18_">
			<use xlink:href="#SVGID_17_"  style="overflow:visible;"/>
		</clipPath>
		<path class="st8" d="M39.5,77.6v0.9c0,0-1.7,0.2-3,0.2c-2.3,0-3-1.3-3-3.9c0-2.9,1.2-4,3.2-4s3,1.1,3,3.6l-0.1,0.9h-5
			c0,1.6,0.5,2.5,2,2.5C37.9,77.8,39.5,77.6,39.5,77.6 M38.7,74.4c0-1.9-0.6-2.5-1.9-2.5c-1.3,0-2,0.7-2,2.5H38.7z"/>
	</g>
	<g>
		<defs>
			<rect id="SVGID_19_" y="0" width="216.9" height="95.4"/>
		</defs>
		<clipPath id="SVGID_20_">
			<use xlink:href="#SVGID_19_"  style="overflow:visible;"/>
		</clipPath>
		<path class="st9" d="M46.6,72.1c0,0-1.7-0.2-2.7-0.2c-0.9,0-1.7,0.3-1.7,1.2c0,0.7,0.4,0.9,2,1.2c1.9,0.3,2.6,0.7,2.6,2.2
			c0,1.8-1.1,2.4-2.9,2.4c-1,0-2.7-0.3-2.7-0.3l0.1-1c0,0,1.7,0.3,2.5,0.3c1.2,0,1.9-0.3,1.9-1.3c0-0.8-0.4-1-2-1.2
			c-1.7-0.3-2.5-0.6-2.5-2.1c0-1.7,1.3-2.2,2.7-2.2c1.1,0,2.7,0.3,2.7,0.3L46.6,72.1z"/>
	</g>
	<g>
		<defs>
			<rect id="SVGID_21_" y="0" width="216.9" height="95.4"/>
		</defs>
		<clipPath id="SVGID_22_">
			<use xlink:href="#SVGID_21_"  style="overflow:visible;"/>
		</clipPath>
		<path class="st10" d="M54,77.2c0,0.4,0.4,0.6,0.9,0.7v0.9c-0.8,0-1.3-0.2-1.8-0.6c0,0-1.4,0.6-2.7,0.6c-1.4,0-2.1-0.8-2.1-2.3
			s0.8-2.1,2.3-2.2l2.4-0.2v-0.7c0-1.1-0.5-1.4-1.4-1.4c-1.1,0-2.9,0.2-2.9,0.2v-0.9c0,0,1.7-0.3,3-0.3c1.7,0,2.4,0.8,2.4,2.4v3.8
			H54z M50.6,75c-0.9,0.1-1.3,0.5-1.3,1.4s0.4,1.4,1.2,1.4c1.1,0,2.4-0.5,2.4-0.5v-2.5L50.6,75z"/>
	</g>
	<g>
		<defs>
			<rect id="SVGID_23_" y="0" width="216.9" height="95.4"/>
		</defs>
		<clipPath id="SVGID_24_">
			<use xlink:href="#SVGID_23_"  style="overflow:visible;"/>
		</clipPath>
		<path class="st11" d="M56.3,78.6V71h1.1v0.5c0,0,1.2-0.7,2.4-0.7c2.1,0,2.6,1,2.6,3.7v4h-1.1v-4c0-2-0.2-2.7-1.6-2.7
			c-1.1,0-2.1,0.6-2.1,0.6v6.2H56.3z"/>
	</g>
	<g>
		<defs>
			<rect id="SVGID_25_" y="0" width="216.9" height="95.4"/>
		</defs>
		<clipPath id="SVGID_26_">
			<use xlink:href="#SVGID_25_"  style="overflow:visible;"/>
		</clipPath>
		<path class="st12" d="M69.4,72.1c0,0-1.7-0.2-2.7-0.2c-0.9,0-1.7,0.3-1.7,1.2c0,0.7,0.4,0.9,2,1.2c1.9,0.3,2.6,0.7,2.6,2.2
			c0,1.8-1.1,2.4-2.9,2.4c-1,0-2.7-0.3-2.7-0.3l0.1-1c0,0,1.7,0.3,2.5,0.3c1.2,0,1.9-0.3,1.9-1.3c0-0.8-0.4-1-2-1.2
			c-1.7-0.3-2.5-0.6-2.5-2.1c0-1.7,1.3-2.2,2.7-2.2c1.1,0,2.7,0.3,2.7,0.3V72.1z"/>
	</g>
	<g>
		<defs>
			<rect id="SVGID_27_" y="0" width="216.9" height="95.4"/>
		</defs>
		<clipPath id="SVGID_28_">
			<use xlink:href="#SVGID_27_"  style="overflow:visible;"/>
		</clipPath>
		<path class="st13" d="M73,72v3.6c0,1.7,0.1,2.1,1.1,2.1c0.4,0,1.3-0.1,1.3-0.1l0.1,0.9c0,0-1,0.2-1.5,0.2c-1.6,0-2.1-0.6-2.1-2.8
			v-4h-1.1v-1h1.1v-2.3H73V71h2.4v1H73z"/>
	</g>
	<g>
		<defs>
			<rect id="SVGID_29_" y="0" width="216.9" height="95.4"/>
		</defs>
		<clipPath id="SVGID_30_">
			<use xlink:href="#SVGID_29_"  style="overflow:visible;"/>
		</clipPath>
		<path class="st14" d="M82.1,77.2c0,0.4,0.4,0.6,0.9,0.7v0.9c-0.8,0-1.3-0.2-1.8-0.6c0,0-1.4,0.6-2.7,0.6c-1.4,0-2.1-0.8-2.1-2.3
			s0.8-2.1,2.3-2.2L81,74v-0.7c0-1.1-0.5-1.4-1.4-1.4c-1.1,0-2.9,0.2-2.9,0.2v-0.9c0,0,1.7-0.3,3-0.3c1.7,0,2.4,0.8,2.4,2.4V77.2z
			 M78.7,75c-0.9,0.1-1.3,0.5-1.3,1.4s0.4,1.4,1.2,1.4c1.1,0,2.4-0.5,2.4-0.5v-2.5L78.7,75z"/>
	</g>
	<g>
		<defs>
			<rect id="SVGID_31_" y="0" width="216.9" height="95.4"/>
		</defs>
		<clipPath id="SVGID_32_">
			<use xlink:href="#SVGID_31_"  style="overflow:visible;"/>
		</clipPath>
		<rect x="84.5" y="67.7" class="st15" width="1.1" height="10.9"/>
	</g>
	<g>
		<defs>
			<rect id="SVGID_33_" y="0" width="216.9" height="95.4"/>
		</defs>
		<clipPath id="SVGID_34_">
			<use xlink:href="#SVGID_33_"  style="overflow:visible;"/>
		</clipPath>
		<path class="st16" d="M89.4,72v3.6c0,1.7,0.1,2.1,1.1,2.1c0.4,0,1.3-0.1,1.3-0.1l0.1,0.9c0,0-1,0.2-1.5,0.2
			c-1.6,0-2.1-0.6-2.1-2.8v-4h-1.1v-1h1.1v-2.3h1.1V71h2.4v1H89.4z"/>
	</g>
	<g>
		<defs>
			<rect id="SVGID_35_" y="0" width="216.9" height="95.4"/>
		</defs>
		<clipPath id="SVGID_36_">
			<use xlink:href="#SVGID_35_"  style="overflow:visible;"/>
		</clipPath>
		<path class="st17" d="M98.3,78.6h-1.1V72h-1v-1h1v-0.7c0-2.2,0.6-2.8,2-2.8c0.5,0,1.5,0.1,1.5,0.1v0.9c0,0-0.8,0-1.3,0
			c-0.8,0-1.1,0.4-1.1,1.8V71h2.2v1h-2.2V78.6z"/>
	</g>
	<g>
		<defs>
			<rect id="SVGID_37_" y="0" width="216.9" height="95.4"/>
		</defs>
		<clipPath id="SVGID_38_">
			<use xlink:href="#SVGID_37_"  style="overflow:visible;"/>
		</clipPath>
		<path class="st18" d="M107.7,71v7.6h-1.1v-0.5c0,0-1.1,0.7-2.2,0.7c-2.1,0-2.6-1-2.6-3.8v-4h1.1v4c0,2.1,0.2,2.8,1.6,2.8
			c1.1,0,2.1-0.6,2.1-0.6V71H107.7z M102.8,69.2h1.1v-1.4h-1.1V69.2z M105.8,69.2h1.1v-1.4h-1.1V69.2z"/>
	</g>
	<g>
		<defs>
			<rect id="SVGID_39_" y="0" width="216.9" height="95.4"/>
		</defs>
		<clipPath id="SVGID_40_">
			<use xlink:href="#SVGID_39_"  style="overflow:visible;"/>
		</clipPath>
		<path class="st19" d="M109.9,71h1.1v1c0,0,1.3-0.9,2.8-1.2V72c-1.4,0.3-2.8,1-2.8,1v5.6h-1.1V71z"/>
	</g>
	<g>
		<defs>
			<rect id="SVGID_41_" y="0" width="216.9" height="95.4"/>
		</defs>
		<clipPath id="SVGID_42_">
			<use xlink:href="#SVGID_41_"  style="overflow:visible;"/>
		</clipPath>
		<path class="st20" d="M6.4,85.9c0,0-2.1-0.3-3-0.3c-1.5,0-2.3,0.5-2.3,1.7c0,1.4,0.7,1.6,2.6,2c2.1,0.5,3,1,3,2.8
			c0,2.3-1.3,3.2-3.4,3.2C2.1,95.3,0,95,0,95l0.1-1c0,0,2.1,0.3,3.1,0.3c1.5,0,2.2-0.7,2.2-2.1c0-1.2-0.6-1.5-2.3-1.8
			c-2.2-0.5-3.3-1-3.3-3s1.3-2.8,3.4-2.8c1.2,0,3.2,0.3,3.2,0.3L6.4,85.9z"/>
	</g>
	<g>
		<defs>
			<rect id="SVGID_43_" y="0" width="216.9" height="95.4"/>
		</defs>
		<clipPath id="SVGID_44_">
			<use xlink:href="#SVGID_43_"  style="overflow:visible;"/>
		</clipPath>
		<path class="st21" d="M10,88.7v3.6c0,1.7,0.1,2.1,1.1,2.1c0.4,0,1.3-0.1,1.3-0.1l0.1,0.9c0,0-1,0.2-1.5,0.2
			c-1.6,0-2.1-0.6-2.1-2.8v-4H7.8v-1h1.1v-2.3H10v2.3h2.4v1H10V88.7z"/>
	</g>
	<g>
		<defs>
			<rect id="SVGID_45_" y="0" width="216.9" height="95.4"/>
		</defs>
		<clipPath id="SVGID_46_">
			<use xlink:href="#SVGID_45_"  style="overflow:visible;"/>
		</clipPath>
		<path class="st22" d="M13.8,87.7h1.1v1c0,0,1.3-0.9,2.8-1.2v1.2c-1.4,0.3-2.8,1-2.8,1v5.6h-1.1V87.7z"/>
	</g>
	<g>
		<defs>
			<rect id="SVGID_47_" y="0" width="216.9" height="95.4"/>
		</defs>
		<clipPath id="SVGID_48_">
			<use xlink:href="#SVGID_47_"  style="overflow:visible;"/>
		</clipPath>
		<path class="st23" d="M24.4,93.8c0,0.4,0.4,0.6,0.9,0.7v0.9c-0.8,0-1.3-0.2-1.8-0.6c0,0-1.4,0.6-2.7,0.6c-1.4,0-2.1-0.8-2.1-2.3
			s0.8-2.1,2.3-2.2l2.4-0.2V90c0-1.1-0.5-1.4-1.4-1.4c-1.1,0-2.9,0.2-2.9,0.2v-0.9c0,0,1.7-0.3,3-0.3c1.7,0,2.4,0.8,2.4,2.4
			L24.4,93.8L24.4,93.8z M21,91.7c-0.9,0.1-1.3,0.5-1.3,1.4s0.4,1.4,1.2,1.4c1.1,0,2.4-0.5,2.4-0.5v-2.5L21,91.7z"/>
	</g>
	<g>
		<defs>
			<rect id="SVGID_49_" y="0" width="216.9" height="95.4"/>
		</defs>
		<clipPath id="SVGID_50_">
			<use xlink:href="#SVGID_49_"  style="overflow:visible;"/>
		</clipPath>
		<path class="st24" d="M26.6,95.3V87c0-2.1,0.9-2.8,3-2.8s2.9,0.6,2.9,2.2c0,1.1-0.4,1.6-1.2,2c-0.7,0.3-0.9,0.4-0.9,0.7
			c0,0.3,0.2,0.5,1.3,1c1.4,0.7,2,1.2,2,2.4c0,2.1-0.8,2.8-3,2.8c-0.8,0-2-0.2-2-0.2v-1c0,0,1.3,0.2,1.9,0.2c1.5,0,2-0.6,2-1.7
			c0-0.9-0.3-1.1-1.7-1.8c-1.3-0.6-1.7-1-1.7-1.8s0.4-1.1,1.2-1.4c0.8-0.3,1-0.7,1-1.3c0-0.9-0.4-1.2-1.8-1.2
			c-1.3,0-1.8,0.4-1.8,1.9v8.1h-1.2V95.3z"/>
	</g>
	<g>
		<defs>
			<rect id="SVGID_51_" y="0" width="216.9" height="95.4"/>
		</defs>
		<clipPath id="SVGID_52_">
			<use xlink:href="#SVGID_51_"  style="overflow:visible;"/>
		</clipPath>
		<path class="st25" d="M40.9,94.3v0.9c0,0-1.7,0.2-3,0.2c-2.3,0-3-1.3-3-3.9c0-2.9,1.2-4,3.2-4s3,1.1,3,3.5L41,91.9h-5
			c0,1.6,0.5,2.5,2,2.5C39.3,94.4,40.9,94.3,40.9,94.3 M40.1,91c0-1.9-0.6-2.5-1.9-2.5c-1.3,0-2,0.7-2,2.5H40.1z"/>
	</g>
	<g>
		<defs>
			<rect id="SVGID_53_" y="0" width="216.9" height="95.4"/>
		</defs>
		<clipPath id="SVGID_54_">
			<use xlink:href="#SVGID_53_"  style="overflow:visible;"/>
		</clipPath>
		<path class="st26" d="M43,95.3v-7.6h1.1v0.5c0,0,1.2-0.7,2.4-0.7c2.1,0,2.6,1,2.6,3.7v4H48v-4c0-2-0.2-2.7-1.6-2.7
			c-1.1,0-2.1,0.6-2.1,0.6v6.2H43z"/>
	</g>
	<g>
		<defs>
			<rect id="SVGID_55_" y="0" width="216.9" height="95.4"/>
		</defs>
		<clipPath id="SVGID_56_">
			<use xlink:href="#SVGID_55_"  style="overflow:visible;"/>
		</clipPath>
		<polygon class="st27" points="51.6,87.7 53.1,94.3 53.4,94.3 55.2,87.8 56.4,87.8 58.2,94.3 58.4,94.3 60,87.7 61.1,87.7 
			59.3,95.3 57.4,95.3 55.8,89.3 54.2,95.3 52.3,95.3 50.5,87.7 		"/>
	</g>
	<g>
		<defs>
			<rect id="SVGID_57_" y="0" width="216.9" height="95.4"/>
		</defs>
		<clipPath id="SVGID_58_">
			<use xlink:href="#SVGID_57_"  style="overflow:visible;"/>
		</clipPath>
		<path class="st28" d="M68.2,94.3v0.9c0,0-1.7,0.2-3,0.2c-2.3,0-3-1.3-3-3.9c0-2.9,1.2-4,3.2-4c2,0,3,1.1,3,3.5l-0.1,0.9h-5
			c0,1.6,0.5,2.5,2,2.5C66.5,94.4,68.2,94.3,68.2,94.3 M67.3,91c0-1.9-0.6-2.5-1.9-2.5s-2,0.7-2,2.5H67.3z"/>
	</g>
	<g>
		<defs>
			<rect id="SVGID_59_" y="0" width="216.9" height="95.4"/>
		</defs>
		<clipPath id="SVGID_60_">
			<use xlink:href="#SVGID_59_"  style="overflow:visible;"/>
		</clipPath>
		<path class="st29" d="M75.3,88.8c0,0-1.7-0.2-2.7-0.2c-0.9,0-1.7,0.3-1.7,1.2c0,0.7,0.4,0.9,2,1.2c1.9,0.3,2.6,0.7,2.6,2.2
			c0,1.8-1.1,2.4-2.9,2.4c-1,0-2.7-0.3-2.7-0.3l0.1-1c0,0,1.7,0.3,2.5,0.3c1.2,0,1.9-0.3,1.9-1.3c0-0.8-0.4-1-2-1.2
			c-1.7-0.3-2.5-0.6-2.5-2.1c0-1.7,1.3-2.2,2.7-2.2c1.1,0,2.7,0.3,2.7,0.3V88.8z"/>
	</g>
	<g>
		<defs>
			<rect id="SVGID_61_" y="0" width="216.9" height="95.4"/>
		</defs>
		<clipPath id="SVGID_62_">
			<use xlink:href="#SVGID_61_"  style="overflow:visible;"/>
		</clipPath>
		<path class="st30" d="M82.9,94.3v0.9c0,0-1.7,0.2-3,0.2c-2.3,0-3-1.3-3-3.9c0-2.9,1.2-4,3.2-4s3,1.1,3,3.5L83,91.9h-5
			c0,1.6,0.5,2.5,2,2.5C81.3,94.4,82.9,94.3,82.9,94.3 M82.1,91c0-1.9-0.6-2.5-1.9-2.5s-2,0.7-2,2.5H82.1z"/>
	</g>
	<g>
		<defs>
			<rect id="SVGID_63_" y="0" width="216.9" height="95.4"/>
		</defs>
		<clipPath id="SVGID_64_">
			<use xlink:href="#SVGID_63_"  style="overflow:visible;"/>
		</clipPath>
		<path class="st31" d="M85,95.3v-7.6h1.1v0.5c0,0,1.2-0.7,2.4-0.7c2.1,0,2.6,1,2.6,3.7v4H90v-4c0-2-0.2-2.7-1.6-2.7
			c-1.1,0-2.1,0.6-2.1,0.6v6.2H85z"/>
	</g>
	<g>
		<defs>
			<rect id="SVGID_65_" y="0" width="216.9" height="95.4"/>
		</defs>
		<clipPath id="SVGID_66_">
			<use xlink:href="#SVGID_65_"  style="overflow:visible;"/>
		</clipPath>
		<polygon class="st32" points="203.7,45.2 140,95 176.8,95 203.7,74 		"/>
	</g>
	<g>
		<polygon class="st33" points="171.9,23.7 154.1,37.6 154.1,49.1 133.6,65.2 121.5,65.2 121.5,79.4 121.6,79.6 145.3,79.6 
			216.8,23.7 		"/>
	</g>
</g>
</svg>
