<?xml version="1.0" standalone="no"?>
<!DOCTYPE svg PUBLIC "-//W3C//DTD SVG 20010904//EN"
 "http://www.w3.org/TR/2001/REC-SVG-20010904/DTD/svg10.dtd">
<svg version="1.0" xmlns="http://www.w3.org/2000/svg"
 width="512.000000pt" height="512.000000pt" viewBox="0 0 512.000000 512.000000"
 preserveAspectRatio="xMidYMid meet">
<metadata>
Created by potrace 1.14, written by Peter Selinger 2001-2017
</metadata>
    <g id="Favicon_mobiLe" stroke="none" stroke-width="1" fill="none" fill-rule="evenodd">
        <g id="Group" transform="translate(1.000000, 0.000000)">
            <path d="M273.8088,346.912186 C273.8088,346.912186 293.647261,293.135897 293.404949,283.629037 L292.938602,203.100127 L337.545864,231.656581 C346.153275,237.685908 352.882043,237.278845 359.591235,228.170039 C364.730354,221.19286 364.350095,211.117263 356.448647,205.571494 L314.624914,174.960533 C304.459895,167.826022 292.358683,164 279.958247,164 L242.673081,164 C222.151899,164 207.208557,175.301012 197.450352,193.435498 L161.014904,259.430223 C156.970724,266.945871 155.612001,276.546642 165.908131,282.548627 C176.204261,288.550612 184.663395,283.351422 189.289585,275.352748 L221.99265,222.319739 C221.99265,222.319739 219.900244,294.832298 223.006882,303.175855 L268.014999,435.032705 C271.753681,445.073726 280.021967,449.257266 288.968794,445.81159 C297.915622,442.365914 302.895926,431.040448 299.153653,421.503978 L271.713882,341.573701" id="Path" stroke="#033977" stroke-width="15" stroke-linecap="round" stroke-linejoin="round"></path>
            <path d="M247,375.822306 L213.482048,417.888429 C206.435162,424.064465 195.602594,423.176883 189.679403,415.938095 L189.679364,415.938057 C184.205327,409.248174 184.915236,399.505882 191.302685,393.661474 L233.831043,341" id="Path" stroke="#033977" stroke-width="15" stroke-linecap="round" stroke-linejoin="round"></path>
            <ellipse id="Oval" stroke="#033977" stroke-width="15" stroke-linecap="round" stroke-linejoin="round" transform="translate(257.184745, 111.922786) rotate(-13.282518) translate(-257.184745, -111.922786) " cx="257.184745" cy="111.922786" rx="33.5918401" ry="33.6939582"></ellipse>
            <path d="M255.5,0 C114.391526,0 0,114.614904 0,256 C0,397.384615 114.391526,512 255.5,512 C396.608474,512 511,397.384615 511,256 C511,114.614904 396.608474,0 255.5,0 L255.5,0 Z M255.5,486.984615 C128.722856,486.984615 25.9492188,384.009856 25.9492188,256.984615 C25.9492188,129.959375 128.722856,26.9846154 255.5,26.9846154 C382.277144,26.9846154 485.050781,129.959375 485.050781,256.984615 C485.050781,384.009856 382.277144,486.984615 255.5,486.984615 Z" id="Shape" fill="#033977" fill-rule="nonzero"></path>
        </g>
    </g>
</svg>
